<?xml version="1.0" encoding="utf-8"?>
<!-- Generator: Adobe Illustrator 27.0.0, SVG Export Plug-In . SVG Version: 6.00 Build 0)  -->
<svg version="1.1" id="Слой_1" xmlns="http://www.w3.org/2000/svg" xmlns:xlink="http://www.w3.org/1999/xlink" x="0px" y="0px"
	 viewBox="0 0 24 24" style="enable-background:new 0 0 24 24;" xml:space="preserve">
<g>
	<g>
		<path d="M10.5,2.8c0.1-0.1,0.2-0.4,0.3-0.5c0.1-0.2,0.2-0.5,0.3-0.6c0.2-0.2,0.4-0.3,0.7-0.4C12.6,1,13.4,1.1,14.2,1
			c0.6,0,1.1,0,1.7,0c1,0,2.1,0,3.1,0.2c0.3,0.1,0.8,0.2,1,0.4c0.1,0.1,0.2,0.4,0.3,0.5c0.2,0.5,0.4,0.9,0.6,1.4
			C21,3.8,21,4.1,21.1,4.4c0,0.1,0.1,0.2,0,0.3c-0.1,0.1-0.3,0.1-0.5,0.1C20.3,4.9,19.9,5,19.5,5c-1.4,0.2-2.9,0.3-4.4,0.3
			c0,0.1,0.1,0.2,0.1,0.4c0.1,0.3,0.2,0.5,0.3,0.8c0,0.1,0.1,0.3,0.2,0.4c0.1,0.1,0.3,0.1,0.4,0.1c0.2,0.1,0.4,0.2,0.6,0.3
			c0.5,0.3,0.8,0.8,0.9,1.3c0.1,0.2,0.2,0.4,0.2,0.7c0,0.3,0,0.6-0.1,0.8c0.7,0,1.4,0.1,2,0.3c0.5,0.1,1.1,0.3,1.5,0.7
			c0.3,0.2,0.5,0.5,0.6,0.8c0.1,0.2,0.2,0.6,0.3,0.8c0.1,0.1,0.2,0.1,0.3,0c0.2,0,0.3-0.2,0.4-0.4c0-0.1,0-0.3,0-0.4V11V8.5
			c0-0.4,0-0.9,0-1.3c-0.1-0.4-0.3-0.7-0.4-1.1c0-0.2,0.1-0.2,0.2-0.2c0.2,0,0.4,0,0.6,0c0.3-0.1,0.3-0.4,0.3-0.6
			c0-0.1-0.1-0.2-0.1-0.3C23.6,4.5,23.4,4.1,23,4c-0.2,0-0.4,0-0.7,0c-0.1,0-0.2,0-0.3-0.1c-0.1-0.2-0.2-0.5-0.3-0.7
			c-0.2-0.5-0.4-1.1-0.6-1.6c-0.1-0.3-0.2-0.7-0.5-0.9c-0.4-0.3-0.9-0.4-1.3-0.5C18.5,0.1,17.7,0,16.8,0c-1.5,0-3-0.1-4.5,0.2
			c-0.3,0-0.6,0.1-0.8,0.2c-0.4,0.1-0.7,0.2-1,0.5c-0.2,0.2-0.3,0.5-0.5,0.8C9.9,2.1,9.7,2.5,9.6,2.8h0.7
			C10.3,2.8,10.4,2.9,10.5,2.8z M21.7,7.3c0.1,0.2,0.1,0.5,0.1,0.7c0,0.2,0,0.5-0.1,0.6C21.5,8.9,21.1,9,20.8,9c-0.3,0-0.6,0-1,0
			c-0.3,0-0.5,0-0.8,0c-0.2,0-0.5-0.1-0.6-0.3c-0.2-0.3,0-0.6,0.3-0.8c0.3-0.2,0.7-0.4,1-0.5c0.3-0.2,0.7-0.3,1.1-0.4
			C21.1,7,21.5,7,21.7,7.3z M8.2,14c0.1-0.1,0.2-0.4,0.2-0.5C8.6,13,8.8,12.6,9,12.2c0.1-0.3,0.3-0.5,0.5-0.8c0.4-0.5,1.1-0.8,1.7-1
			c1.3-0.4,2.7-0.4,4.1-0.5c0.3,0,0.6,0,0.9,0c0.2,0,0.4,0,0.5-0.2c0.1-0.2,0-0.4,0-0.6c-0.1-0.4-0.3-0.9-0.8-1c-0.2,0-0.4,0-0.7,0
			c-0.1,0-0.2,0-0.3-0.1c-0.1-0.2-0.2-0.5-0.3-0.8c-0.2-0.5-0.4-0.9-0.6-1.4c-0.1-0.3-0.2-0.6-0.4-0.8c-0.4-0.4-1-0.5-1.5-0.6
			c-0.8-0.2-1.6-0.2-2.5-0.2c-0.5,0-1,0-1.5,0c-0.3,0-0.5,0-0.8,0c-0.3,0-0.6,0-0.9,0C5.7,4.2,5,4.3,4.3,4.5
			C3.9,4.6,3.5,4.7,3.3,5.1C3.1,5.3,3,5.5,2.9,5.8c-0.2,0.5-0.4,1-0.6,1.6C2.2,7.5,2.2,7.8,2,8C2,8.1,1.8,8.1,1.7,8.1
			c-0.2,0-0.4,0-0.6,0C0.6,8.2,0.5,8.6,0.3,9C0.3,9.2,0.2,9.4,0.2,9.5C0.3,10,0.7,9.9,1,9.9c0.1,0,0.3,0,0.4,0.1
			c0,0.1-0.1,0.3-0.1,0.4C1.1,10.7,1,11,1,11.4c-0.1,0.4,0,0.9,0,1.3v2.6V16c0,0.2,0,0.4,0.2,0.6s0.4,0.2,0.7,0.2c0.5,0,0.9,0,1.4,0
			c0.1,0,0.2,0,0.2,0c0.4-0.2,0.3-0.6,0.3-1c0-0.1-0.1-0.4,0.1-0.5c0.1,0,0.1,0,0.2,0h0.5h1.2c0.2,0,0.4,0,0.6,0
			c0.1,0,0.2-0.2,0.2-0.2c0.1-0.2,0.2-0.3,0.4-0.5c0.2-0.2,0.5-0.4,0.8-0.4C7.9,14,8.1,14,8.2,14z M5.2,13.1
			c-0.2,0.1-0.5,0.1-0.8,0.1c-0.3,0-0.6,0-0.9,0c-0.4,0-0.8,0-1.1-0.3c-0.3-0.2-0.2-0.7-0.2-1c0-0.1,0-0.3,0.1-0.5
			c0.1-0.1,0.2-0.2,0.3-0.3C3.3,11,4,11.4,4.6,11.6c0.3,0.1,0.5,0.2,0.8,0.4C5.7,12.3,5.7,12.9,5.2,13.1z M5.4,9.2
			C4.8,9.1,4.2,9,3.7,8.9c-0.2,0-0.3-0.1-0.5-0.1C3.1,8.8,3,8.8,3,8.7C2.9,8.6,3,8.4,3,8.3c0.1-0.4,0.2-0.8,0.4-1.1
			c0.1-0.3,0.3-0.7,0.5-1C3.9,6,4,5.8,4.1,5.7c0.3-0.3,0.7-0.3,1-0.4C5.7,5.2,6.3,5.2,7,5.1c0.2,0,0.4,0,0.7,0c0.2,0,0.4,0,0.7,0
			c0.4,0,0.7,0,1.1,0c0.6,0,1.2,0,1.8,0.1c0.5,0.1,1.1,0.1,1.6,0.4c0.2,0.1,0.2,0.4,0.3,0.6c0.3,0.6,0.5,1.1,0.7,1.7
			c0.1,0.2,0.1,0.4,0.2,0.5c0,0.1,0,0.2,0,0.2c-0.1,0.1-0.2,0.1-0.3,0.1C13.3,8.9,13,9,12.7,9C10.3,9.4,7.8,9.4,5.4,9.2z M23.6,16
			c-0.1-0.2-0.1-0.3-0.2-0.5c-0.2-0.3-0.6-0.3-0.9-0.3c-0.2,0-0.4,0.1-0.5-0.1c-0.1-0.2-0.2-0.5-0.3-0.7c-0.2-0.5-0.4-1-0.6-1.5
			c-0.1-0.3-0.2-0.7-0.5-0.9c-0.3-0.2-0.6-0.3-0.9-0.4c-0.4-0.1-0.9-0.2-1.4-0.3c-1.3-0.1-2.6-0.2-3.9-0.1c-0.5,0-1.1,0-1.6,0.1
			c-0.5,0.1-0.9,0.2-1.4,0.3c-0.3,0.1-0.7,0.2-1,0.4c-0.2,0.2-0.4,0.5-0.5,0.8c-0.2,0.5-0.4,1.1-0.6,1.6c0,0.1-0.1,0.3-0.2,0.4
			c0,0.1,0,0.2-0.1,0.2c-0.1,0.1-0.5,0.1-0.6,0.1c-0.4,0-0.8,0.1-0.9,0.5c0,0.1-0.1,0.2-0.1,0.2c-0.1,0.3-0.3,0.7,0,0.9
			C7.7,17.1,8,17,8.2,17c0.1,0,0.3,0,0.3,0.2c0,0.2-0.1,0.3-0.2,0.5c-0.1,0.3-0.2,0.5-0.2,0.8c0,0.4,0,0.8,0,1.1v2.3v1
			c0,0.2,0,0.4,0,0.6c0,0.1,0.1,0.2,0.2,0.3c0.1,0.1,0.1,0.1,0.2,0.1c0,0,0.1,0,0.1,0h1.5c0.3,0,0.6,0,0.7-0.3
			c0.2-0.2,0.1-0.6,0.1-0.9c0-0.1,0-0.3,0.1-0.4c0.1,0,0.2,0,0.3,0h0.6h2.3h4.1h1.2c0.1,0,0.4,0,0.5,0c0.1,0.1,0.1,0.4,0.1,0.5
			c0,0.4,0,0.8,0.4,1c0.1,0,0.1,0,0.2,0c0.5,0,1,0,1.5,0c0.3,0,0.5,0,0.8-0.2c0.2-0.2,0.2-0.4,0.2-0.6v-0.7v-3.6c0-0.2,0-0.5,0-0.7
			c0-0.1-0.1-0.3-0.2-0.4c0-0.1-0.1-0.2-0.1-0.4c0,0-0.1-0.1,0-0.2c0-0.1,0.2-0.1,0.2-0.1c0.2,0,0.5,0.1,0.7,0
			c0.2-0.1,0.1-0.3,0.1-0.4C23.8,16.4,23.7,16.2,23.6,16z M12.4,20.2c-0.3,0.1-0.5,0.1-0.8,0.1c-0.4,0-0.8,0-1.2,0
			c-0.3,0-0.5-0.1-0.7-0.3c-0.2-0.2-0.2-0.4-0.2-0.6c0-0.4-0.1-1,0.4-1.1c0.6-0.1,1.3,0.2,1.9,0.5c0.3,0.1,0.5,0.2,0.8,0.4
			C12.8,19.4,12.8,20,12.4,20.2z M12.5,16.3c-0.6-0.1-1.2-0.1-1.8-0.3c-0.1,0-0.3-0.1-0.4-0.1c-0.1,0-0.2,0-0.2-0.1
			c-0.1-0.1,0-0.3,0-0.4c0.1-0.4,0.2-0.8,0.4-1.1c0.1-0.3,0.3-0.7,0.4-1c0.1-0.2,0.1-0.4,0.3-0.5c0.3-0.3,0.7-0.3,1-0.4
			c0.6-0.1,1.2-0.2,1.8-0.2c0.2,0,0.4,0,0.7,0c0.2,0,0.4,0,0.7,0c0.4,0,0.7,0,1.1,0c0.6,0,1.2,0,1.8,0.1c0.5,0.1,1.1,0.1,1.5,0.4
			c0.3,0.2,0.4,0.5,0.5,0.8c0.2,0.5,0.4,1,0.6,1.5c0.1,0.2,0.1,0.4,0.2,0.6c0,0.1,0,0.2,0,0.2c-0.1,0.1-0.2,0.1-0.3,0.1
			c-0.3,0.1-0.6,0.1-0.9,0.2C17.5,16.5,14.9,16.5,12.5,16.3z M21.6,19.8c-0.1,0.2-0.4,0.3-0.7,0.3c-0.4,0.1-0.8,0.1-1.1,0.1
			c-0.2,0-0.5,0-0.7,0c-0.2,0-0.5,0-0.6-0.3c-0.2-0.3,0-0.6,0.2-0.8c0.3-0.2,0.6-0.3,0.9-0.5c0.4-0.2,0.7-0.4,1.1-0.4
			c0.3-0.1,0.7-0.1,0.9,0.3c0.1,0.2,0.1,0.5,0.1,0.7C21.7,19.4,21.8,19.7,21.6,19.8z"/>
	</g>
</g>
</svg>
