<?xml version="1.0" encoding="utf-8"?>
<!-- Generator: Adobe Illustrator 27.0.0, SVG Export Plug-In . SVG Version: 6.00 Build 0)  -->
<svg version="1.1" id="Слой_1" xmlns="http://www.w3.org/2000/svg" xmlns:xlink="http://www.w3.org/1999/xlink" x="0px" y="0px"
	 viewBox="0 0 24 21" style="enable-background:new 0 0 24 21;" xml:space="preserve">
<style type="text/css">
	.st0{opacity:0.993;fill-rule:evenodd;clip-rule:evenodd;enable-background:new    ;}
	.st1{opacity:0.966;fill-rule:evenodd;clip-rule:evenodd;enable-background:new    ;}
</style>
<g>
	<path class="st0" d="M9.1,0.3c0.9,0,1.7,0.2,2.4,0.6c0.2,0.1,0.5,0.3,0.7,0.6C12.6,2,12.9,2.6,13,3.4c0,0,0,0,0,0
		c0,0.7,0,1.4,0.1,2.1c0,0.1,0,0.1,0.1,0.1c0.2,0.1,0.3,0.2,0.3,0.4c0.1,1.1-0.3,2.1-1,2.8c0,0,0,0,0,0.1c-0.2,0.7-0.5,1.3-0.9,1.8
		c0,0.1,0,0.1,0,0.2l0,0c0,0,0,0,0,0c0.5,0.3,1.1,0.6,1.6,0.9c0.1,0,0.1,0.1,0.1,0.2c-1,1.8-1.2,3.6-0.5,5.5c0.2,0.5,0.5,1,0.8,1.4
		c0.1,0.1,0,0.2-0.1,0.2c-4,0.4-7.9,0.3-11.9-0.5c-0.4-0.1-0.8-0.2-1.1-0.4c0,0,0,0,0,0c0,0,0,0,0,0c-0.1-0.1-0.2-0.3-0.2-0.5
		c0.1-1.2,0.4-2.4,1-3.4c0.4-0.7,0.9-1.1,1.6-1.5c0.9-0.4,1.8-0.8,2.7-1.2c0.5-0.2,1-0.5,1.5-0.8C7,10.9,7,10.8,7,10.8c0,0,0,0,0,0
		c0,0,0,0,0-0.1C6.5,10.2,6.2,9.6,6.1,9c0,0,0,0,0-0.1C5.5,8.3,5.1,7.6,5,6.8c0,0,0,0,0,0c0-0.3,0-0.6,0-0.9c0,0,0,0,0,0
		c0-0.1,0.1-0.2,0.2-0.3c0.1,0,0.1-0.1,0.1-0.1c0-0.6,0-1.1,0.1-1.7c0-0.4,0.1-0.7,0.2-1.1c0.3-1,1-1.7,2-2.1
		c0.3-0.1,0.6-0.2,0.8-0.2c0.2,0,0.3,0,0.5-0.1C9,0.3,9,0.3,9.1,0.3z"/>
</g>
<g>
	<path class="st1" d="M20.6,10.3c1.1,0.5,2,1.3,2.7,2.4l0,0c0.8,1.6,0.9,3.2,0.2,4.8l0,0c-1,2.1-2.7,3.2-5,3.3l0,0
		c-2.3-0.1-4-1.2-5-3.3l0,0c-0.8-2.1-0.5-4.1,1-5.9l0,0c0.4-0.4,0.8-0.7,1.2-1C17.1,9.7,19,9.6,20.6,10.3z M17.1,11.1
		c0.4,0,0.6,0.1,0.8,0.4l0,0c0.1,0.9,0.1,1.8,0,2.7l0,0c-0.5,0.3-0.7,0.7-0.7,1.2l0,0c-0.7,0.4-1.4,0.9-2.2,1.3l0,0
		c-0.4,0.1-0.7,0-0.9-0.3l0,0c-0.4-1.9,0.1-3.5,1.7-4.7l0,0C16.2,11.5,16.7,11.2,17.1,11.1L17.1,11.1z M19.4,11.1L19.4,11.1
		C19.4,11.1,19.4,11.1,19.4,11.1c0.3,0,0.5,0,0.7,0.1c1.8,0.8,2.7,2.2,2.8,4.1l0,0c0,0.3,0,0.6-0.1,1l0,0c-0.2,0.4-0.5,0.6-1,0.5
		l0,0c-0.7-0.4-1.4-0.8-2.1-1.2l0,0c0-0.4-0.1-0.7-0.4-1l0,0c-0.1-0.1-0.2-0.2-0.3-0.2l0,0c0-0.7,0-1.4,0-2.2l0,0
		C18.8,11.6,19,11.3,19.4,11.1C19.4,11.1,19.4,11.1,19.4,11.1z M18.7,14.8c0.3,0.2,0.4,0.5,0.2,0.8c0,0.1-0.1,0.1-0.1,0.1
		c-0.2,0.1-0.4,0.2-0.6,0.1c-0.2-0.1-0.3-0.2-0.3-0.4c0-0.2,0-0.4,0.2-0.5C18.2,14.7,18.5,14.7,18.7,14.8z M17.7,16.3
		c0.1,0,0.2,0.1,0.4,0.1l0,0c0.3,0.1,0.4,0.1,0.7,0l0,0c0.1-0.1,0.2-0.1,0.3-0.1c0,0,0.1,0,0.1,0c0,0,0.1,0,0.1,0
		c0.7,0.4,1.3,0.8,2,1.1l0,0c0.3,0.3,0.4,0.6,0.2,1l0,0c-1.1,1-2.4,1.4-3.9,1.2c-0.9-0.2-1.6-0.5-2.2-1.1l0,0
		c-0.2-0.4-0.2-0.7,0.1-1l0,0c0.7-0.4,1.3-0.8,2-1.2C17.6,16.3,17.7,16.3,17.7,16.3z"/>
</g>
</svg>
