<?xml version="1.0" encoding="utf-8"?>
<!-- Generator: Adobe Illustrator 27.0.0, SVG Export Plug-In . SVG Version: 6.00 Build 0)  -->
<svg version="1.1" id="Слой_1" xmlns="http://www.w3.org/2000/svg" xmlns:xlink="http://www.w3.org/1999/xlink" x="0px" y="0px"
	 viewBox="0 0 24 24" style="enable-background:new 0 0 24 24;" xml:space="preserve">
<path d="M12.3,12.5C8.8,12.5,6,9.7,6,6.3S8.8,0,12.3,0s6.3,2.8,6.3,6.3S15.7,12.5,12.3,12.5z M12.3,3C10.5,3,9,4.5,9,6.3
	s1.5,3.3,3.3,3.3s3.3-1.5,3.3-3.3S14.1,3,12.3,3z"/>
<path d="M19,13.2c-0.5-0.7-1.5-0.8-2.2-0.3c0,0-1.7,1.3-4.5,1.3s-4.5-1.3-4.5-1.3c-0.7-0.5-1.6-0.4-2.2,0.3
	c-0.5,0.7-0.4,1.6,0.3,2.2c0.1,0.1,1.7,1.3,4.5,1.7l-4.2,4.2c-0.6,0.6-0.6,1.6,0,2.2C6.5,23.8,6.9,24,7.3,24c0.4,0,0.8-0.2,1.1-0.5
	l3.9-4l3.9,4c0.3,0.3,0.7,0.5,1.1,0.5s0.8-0.2,1.1-0.5c0.6-0.6,0.6-1.6,0-2.2l-4.2-4.2c2.7-0.5,4.4-1.7,4.5-1.7
	C19.4,14.8,19.6,13.8,19,13.2z"/>
</svg>
