<?xml version="1.0" encoding="utf-8"?>
<!-- Generator: Adobe Illustrator 27.0.0, SVG Export Plug-In . SVG Version: 6.00 Build 0)  -->
<svg version="1.1" id="Слой_1" xmlns="http://www.w3.org/2000/svg" xmlns:xlink="http://www.w3.org/1999/xlink" x="0px" y="0px"
	 viewBox="0 0 24 24" style="enable-background:new 0 0 24 24;" xml:space="preserve">
<g>
	<g>
		<path d="M16.5,7.6c0-0.2-0.1-0.4-0.3-0.6c-1.6-0.9-4.7-2.8-6.5-3.9C9.5,3,9.3,2.9,9.1,2.9c-0.5,0-0.9,0.3-0.9,0.7v8
			c0,0.4,0.4,0.7,0.9,0.7c0.2,0,0.4,0,0.5-0.1c1.8-1.1,5-3.1,6.5-4C16.4,8,16.5,7.8,16.5,7.6z M19.1,17.6c-0.2-0.1-0.5-0.2-0.8-0.4
			c-0.4,0-0.7,0.2-0.9,0.4v-1.5h-1.2v4.6h1.1v-0.3c0.2,0.3,0.6,0.4,1,0.4c0.3,0,0.5-0.1,0.8-0.2c0.3-0.1,0.5-0.3,0.6-0.6
			c0.1-0.2,0.2-0.6,0.2-0.9c0-0.3-0.1-0.6-0.2-0.9C19.6,17.9,19.4,17.7,19.1,17.6z M18.5,19.7c-0.1,0.2-0.3,0.2-0.5,0.2
			s-0.4-0.1-0.5-0.2c-0.1-0.1-0.2-0.3-0.2-0.6c0-0.3,0.1-0.5,0.2-0.6s0.3-0.2,0.5-0.2s0.4,0.1,0.5,0.2c0.1,0.2,0.2,0.4,0.2,0.6
			C18.7,19.4,18.6,19.6,18.5,19.7z M7,19.1c0,0.3-0.1,0.5-0.2,0.6c-0.2,0.1-0.3,0.2-0.5,0.2S6,19.8,5.9,19.7
			c-0.1-0.2-0.1-0.3-0.1-0.6v-1.7H4.6v1.9c0,0.6,0.2,0.9,0.4,1.2s0.6,0.4,1,0.4c0.2,0,0.4,0,0.6-0.1c0.2-0.1,0.4-0.2,0.5-0.3v0.4
			h1.1v-3.4H7V19.1z M23.8,18.4c-0.2-0.3-0.4-0.5-0.7-0.6c-0.3-0.1-0.6-0.2-0.9-0.2c-0.4,0-0.7,0-1,0.2c-0.3,0.1-0.5,0.3-0.7,0.6
			c-0.1,0.3-0.2,0.6-0.2,0.9s0,0.6,0.2,0.9c0.2,0.2,0.4,0.4,0.7,0.6c0.3,0.1,0.6,0.2,1,0.2c0.6,0,1.1-0.2,1.4-0.6L23,19.7
			c-0.2,0.1-0.3,0.1-0.4,0.2C22.5,20,22.4,20,22.2,20s-0.3,0-0.5-0.1c-0.2-0.1-0.3-0.2-0.3-0.4h2.5c0-0.2,0.1-0.3,0.1-0.2
			C24,19,24,18.7,23.8,18.4z M21.5,18.8c0-0.2,0.1-0.3,0.2-0.4c0.1-0.1,0.3-0.2,0.5-0.2s0.4,0.1,0.5,0.2c0.1,0.1,0.2,0.2,0.2,0.4
			H21.5z M3.8,19C3.9,18.8,4,18.5,4,18.2c0-0.4,0-0.7-0.2-0.9c-0.2-0.3-0.4-0.5-0.7-0.6c-0.3-0.1-0.6-0.2-1-0.2h-2v4.4h1.2v-1.2H2
			L2.8,21h1.3l-0.9-1.4C3.4,19.4,3.7,19.2,3.8,19z M2.6,18.5c-0.2,0.1-0.3,0.2-0.6,0.2H1.3v-1.3H2c0.3,0,0.5,0.1,0.6,0.2
			c0.1,0.1,0.2,0.2,0.2,0.4S2.8,18.4,2.6,18.5z M14.2,19.1c0,0.3-0.1,0.5-0.2,0.6c-0.2,0.1-0.3,0.2-0.5,0.2s-0.3-0.1-0.4-0.2
			C13,19.5,13,19.4,13,19.1v-1.7h-1.2v1.9c0,0.6,0.2,0.9,0.4,1.2s0.6,0.4,1,0.4c0.2,0,0.4,0,0.6-0.1c0.2-0.1,0.4-0.2,0.5-0.3v0.4
			h1.1v-3.4h-1.2V19.1z M10.8,20c-0.1,0-0.2,0-0.3-0.1c-0.1-0.1-0.1-0.2-0.1-0.3v-1.1h0.8v-0.9h-0.8v-0.9H9.2v0.9H8.7v0.9h0.4v1.1
			c0,0.5,0.2,0.8,0.4,1c0.2,0.2,0.6,0.3,1,0.3c0.2,0,0.4-0.1,0.5-0.1c0.2,0,0.3,0,0.4-0.1l-0.2-0.8C11.1,20,10.9,20,10.8,20z"/>
	</g>
</g>
</svg>
