<svg width="15" height="15" viewBox="0 0 15 15" fill="none" xmlns="http://www.w3.org/2000/svg">
<path d="M14.6884 6.68138L11.6748 9.27126C11.4937 9.42626 11.4139 9.67815 11.4692 9.91712L12.3806 13.8342C12.5156 14.4704 12.0553 14.9968 11.5398 14.9968C11.3863 14.9968 11.2237 14.9483 11.0733 14.845L7.77736 12.7137C7.58095 12.5877 7.33545 12.5877 7.13904 12.7169L3.883 14.8482C3.73263 14.9548 3.56998 15 3.41347 15C2.88563 15 2.40996 14.4736 2.57568 13.8375L3.48712 9.91712C3.54236 9.67815 3.46257 9.42949 3.28458 9.27449L0.310873 6.68784C-0.299826 6.13886 0.0500214 5.08288 0.832576 5.03767L4.68397 4.74381C4.91413 4.72766 5.11361 4.57266 5.19953 4.34984L6.67258 0.584499C6.82602 0.193757 7.16359 0 7.50116 0C7.83874 0 8.17631 0.193757 8.32975 0.584499L9.79972 4.34661C9.88565 4.56943 10.0882 4.72121 10.3153 4.74058L14.1667 5.03445C14.9523 5.07966 15.2991 6.1324 14.6884 6.68138Z" fill="#FFE600"/>
</svg>
